<svg id="Capa_1" enable-background="new 0 0 512 512" height="512" viewBox="0 0 512 512" width="512" xmlns="http://www.w3.org/2000/svg" xmlns:xlink="http://www.w3.org/1999/xlink"><linearGradient id="SVGID_1_" gradientUnits="userSpaceOnUse" x1="256" x2="256" y1="421" y2="91"><stop offset="0" stop-color="#a93aff"/><stop offset="1" stop-color="#ff81ff"/></linearGradient><g><g><g><path d="m271 256c0 24.813 20.187 45 45 45 19.555 0 36.228-12.542 42.42-30h17.58c8.284 0 15-6.716 15-15s-6.716-15-15-15h-17.58c-6.192-17.458-22.865-30-42.42-30-24.813 0-45 20.187-45 45zm60 0c0 8.271-6.729 15-15 15s-15-6.729-15-15 6.729-15 15-15 15 6.729 15 15zm169.819-86.853c-8.452-11.702-20.463-18.147-33.819-18.147-21.106 0-33.99 15.553-40.471 29.738-53.597-2.688-75.09-26.102-95.905-48.795-18.462-20.129-37.553-40.943-74.624-40.943s-56.162 20.814-74.624 40.942c-20.815 22.694-42.308 46.108-95.905 48.795-6.481-14.184-19.364-29.737-40.471-29.737-13.356 0-25.367 6.445-33.819 18.147-7.21 9.981-11.181 23.069-11.181 36.853 0 18.51 7.303 37.362 21.118 54.517 14.014 17.402 34.489 32.999 60.899 46.415 9.036 20.096 20.779 38.181 35.129 53.89 35.45 38.806 84.762 60.178 138.854 60.178s103.404-21.372 138.854-60.178c14.351-15.709 26.093-33.794 35.129-53.89 26.41-13.416 46.885-29.013 60.899-46.415 13.815-17.155 21.118-36.007 21.118-54.517 0-13.784-3.971-26.872-11.181-36.853zm-470.819 36.853c0-13.785 6.729-25 15-25 8.657 0 13.646 13.046 15.021 17.227.151 22.851 2.618 44.529 7.319 64.788-24.073-17.667-37.34-37.564-37.34-57.015zm226 185c-95.114 0-160.32-71.917-165.638-180.494 63.459-4.153 90.825-33.976 113.123-58.285 12.74-13.89 22.776-24.818 37.516-29.17v72.949c0 8.284 6.716 15 15 15s15-6.716 15-15v-72.95c14.739 4.353 24.776 15.281 37.516 29.17 22.298 24.31 49.664 54.132 113.123 58.285-5.32 108.578-70.526 180.495-165.64 180.495zm188.66-127.985c4.7-20.256 7.167-41.93 7.319-64.776 1.403-4.265 6.387-17.239 15.021-17.239 8.271 0 15 11.215 15 25 0 19.451-13.267 39.348-37.34 57.015z" fill="url(#SVGID_1_)"/></g></g></g></svg>